<svg width="255.833862" height="32.164062" viewBox="0 0 255.834 32.1641" fill="none" xmlns="http://www.w3.org/2000/svg" xmlns:xlink="http://www.w3.org/1999/xlink">
	<desc>
			Created with Pixso.
	</desc>
	<defs/>
	<path id="Vector" d="M248.95 23.08L248.95 0.18L255.83 0.18L255.83 32.04L245.91 32.04L232.01 9.2L231.24 9.2L231.24 32.04L224.35 32.04L224.35 0.18L233.64 0.18L233.64 0.23L234.27 0.23L248.13 23.08L248.95 23.08Z" fill="#000F1B" fill-opacity="1.000000" fill-rule="evenodd"/>
	<path id="Vector" d="M173.21 0.18L173.21 25.81L192.37 25.81L192.37 32.04L166.33 32.04L166.33 0.18L173.21 0.18Z" fill="#000F1B" fill-opacity="1.000000" fill-rule="evenodd"/>
	<path id="Vector" d="M150.3 0.18C154.1 0.18 163.84 0.23 163.84 11.7C163.84 23.58 153.29 23.17 150.3 23.17C149.12 23.17 144.41 23.17 143.01 23.17L143.01 32.04L136.12 32.04L136.12 0.18L143.01 0.18L143.01 0.23C144.68 0.23 148.44 0.18 150.3 0.18ZM150.52 17.16C152.38 17.16 157.36 17.43 157.36 11.7C157.36 6.19 152.97 6.19 150.66 6.19C149.39 6.19 144.86 6.19 143.01 6.19L143.01 17.16C144.55 17.16 149.94 17.16 150.52 17.16Z" fill="#000F1B" fill-opacity="1.000000" fill-rule="evenodd"/>
	<path id="Vector" d="M123.76 0.18L133.63 0.18L133.63 32.04L126.75 32.04L126.75 8.33L126.07 8.33L120.05 32.04L110.13 32.04L104.1 8.33L103.42 8.33L103.42 32.04L96.54 32.04L96.54 0.18L106.69 0.18L106.69 0.23L108.36 0.23L114.66 25.72L115.29 25.72L121.63 0.23L123.76 0.23L123.76 0.18Z" fill="#000F1B" fill-opacity="1.000000" fill-rule="evenodd"/>
	<path id="Vector" d="M83.85 0.23L95.17 32.04L88.02 32.04L86.16 26.81L69.99 26.81L68.09 32.04L60.98 32.04L72.3 0.23L83.85 0.23ZM72.21 20.48L83.9 20.48L78.96 6.51L77.2 6.51L72.21 20.48Z" fill="#000F1B" fill-opacity="1.000000" fill-rule="evenodd"/>
	<path id="Vector" d="M60.7 10.83C60.7 16.34 58.26 18.34 55.4 19.85L61.47 32.04L54 32.04L48.84 21.44C48.16 21.44 47.57 21.44 47.16 21.44C45.98 21.44 41.27 21.44 39.87 21.44L39.87 32.04L32.99 32.04L32.99 0.18L39.87 0.18L39.87 0.23C41.54 0.23 46.57 0.18 48.43 0.18C52.23 0.18 60.7 0.18 60.7 10.83ZM47.89 15.25C49.88 15.25 54.32 15.29 54.32 10.83C54.32 6.42 50.15 6.42 48.02 6.42C46.75 6.42 41.68 6.42 39.87 6.42L39.87 15.25C41.36 15.25 47.3 15.25 47.89 15.25Z" fill="#000F1B" fill-opacity="1.000000" fill-rule="evenodd"/>
	<path id="Vector" d="M0 6.51L0 0.18L30.84 0.18L30.84 6.51L18.83 6.51L18.83 32.04L11.95 32.04L11.95 6.51L0 6.51Z" fill="#000F1B" fill-opacity="1.000000" fill-rule="evenodd"/>
	<path id="Vector" d="M194.86 32.16L213.33 0L223.01 0L204.54 32.16L194.86 32.16Z" fill="#FA6C1C" fill-opacity="1.000000" fill-rule="nonzero"/>
</svg>
