<svg width="150.000122" height="35.000000" viewBox="0 0 150 35" fill="none" xmlns="http://www.w3.org/2000/svg" xmlns:xlink="http://www.w3.org/1999/xlink">
	<desc>
			Created with Pixso.
	</desc>
	<defs>
		<clipPath id="clip382_457">
			<rect id="Frame" rx="-0.500000" width="99.764946" height="22.402367" transform="translate(49.735229 12.097656)" fill="white" fill-opacity="0"/>
		</clipPath>
	</defs>
	<rect id="Frame" rx="-0.500000" width="99.764946" height="22.402367" transform="translate(49.735229 12.097656)" fill="#FFFFFF" fill-opacity="0"/>
	<g clip-path="url(#clip382_457)">
		<path id="Vector" d="M53.32 11.66L53.32 25.34C53.32 27.14 53.88 28.58 55.02 29.65C56.16 30.73 57.5 31.26 59.04 31.26C60.57 31.26 61.9 30.73 63.05 29.65C64.19 28.57 64.77 27.14 64.77 25.34L64.77 11.66L68.71 11.66L68.71 25.34C68.71 28.17 67.78 30.47 65.92 32.25C64.05 34.06 61.75 34.95 59.04 34.95C56.33 34.95 54.03 34.08 52.17 32.32C50.31 30.57 49.38 28.24 49.38 25.34L49.38 11.66L53.32 11.66Z" fill="#FFFFFF" fill-opacity="1.000000" fill-rule="nonzero"/>
		<path id="Vector" d="M72.18 17.23L75.99 17.23L75.99 19.54C77.33 17.8 79.15 16.93 81.45 16.93C83.45 16.93 85.18 17.58 86.63 18.86C88.07 20.15 88.8 21.85 88.8 23.99L88.8 34.69L84.99 34.69L84.99 25.01C84.99 23.62 84.58 22.52 83.75 21.7C82.92 20.87 81.9 20.46 80.69 20.46C79.3 20.46 78.17 20.96 77.29 21.96C76.42 22.96 75.99 24.21 75.99 25.7L75.99 34.69L72.18 34.69L72.18 17.23Z" fill="#FFFFFF" fill-opacity="1.000000" fill-rule="nonzero"/>
		<path id="Vector" d="M96.14 17.23L96.14 34.69L92.34 34.69L92.34 17.23L96.14 17.23Z" fill="#FFFFFF" fill-opacity="1.000000" fill-rule="nonzero"/>
		<path id="Vector" d="M99.88 17.23L103.69 17.23L103.69 20.09C104.24 19 105 18.21 105.96 17.74C106.92 17.27 107.9 17.03 108.92 17.03C109.41 17.03 109.91 17.08 110.44 17.16L110.44 21.22C109.76 21 109.11 20.89 108.49 20.89C107.5 20.89 106.45 21.25 105.35 21.97C104.24 22.7 103.69 23.98 103.69 25.83L103.69 34.69L99.88 34.69L99.88 17.23Z" fill="#FFFFFF" fill-opacity="1.000000" fill-rule="nonzero"/>
		<path id="Vector" d="M114.35 19.57C116.11 17.81 118.23 16.93 120.7 16.93C122.91 16.93 124.83 17.64 126.48 19.06C128.12 20.48 129.13 22.25 129.51 24.38C129.64 24.91 129.7 25.43 129.7 25.96C129.7 26.42 129.65 26.89 129.54 27.34L115.44 27.34C115.66 28.64 116.26 29.67 117.24 30.44C118.22 31.21 119.38 31.59 120.7 31.59C122.73 31.59 124.35 30.87 125.57 29.42L128.94 30.31C128.23 31.72 127.1 32.84 125.55 33.69C123.99 34.54 122.38 34.96 120.7 34.96C118.16 34.96 116.03 34.08 114.29 32.32C112.56 30.57 111.7 28.45 111.7 25.97C111.7 23.46 112.58 21.33 114.35 19.57ZM115.44 24.45L125.83 24.45C125.61 23.28 125.03 22.3 124.09 21.5C123.16 20.7 122.02 20.29 120.67 20.29C119.32 20.29 118.17 20.7 117.23 21.5C116.28 22.3 115.68 23.28 115.44 24.45Z" fill="#FFFFFF" fill-opacity="1.000000" fill-rule="nonzero"/>
		<path id="Vector" d="M134.37 19.57C136.07 17.82 138.13 16.94 140.56 16.94C142.92 16.94 144.8 17.82 146.19 19.57L146.19 11.63L150 11.63L150 34.69L146.19 34.69L146.19 32.39C144.8 34.1 142.92 34.96 140.56 34.96C138.16 34.96 136.1 34.07 134.39 32.3C132.68 30.54 131.82 28.42 131.82 25.96C131.82 23.46 132.67 21.33 134.37 19.57ZM135.36 25.96C135.36 27.5 135.89 28.81 136.95 29.9C138.01 30.99 139.33 31.53 140.89 31.53C142.41 31.53 143.72 30.98 144.81 29.88C145.9 28.78 146.45 27.48 146.45 25.96C146.45 24.45 145.9 23.14 144.81 22.03C143.72 20.92 142.41 20.37 140.89 20.37C139.35 20.37 138.04 20.91 136.97 22.01C135.9 23.11 135.36 24.43 135.36 25.96Z" fill="#FFFFFF" fill-opacity="1.000000" fill-rule="nonzero"/>
	</g>
	<path id="Vector" d="M36.22 8.2C36.22 12.74 32.51 16.41 27.94 16.41C23.38 16.41 19.67 12.74 19.67 8.2C19.67 3.67 23.38 0 27.94 0C32.51 0 36.22 3.67 36.22 8.2Z" fill="#FFFFFF" fill-opacity="1.000000" fill-rule="evenodd"/>
	<path id="Vector" d="M16.54 17.49L16.54 14.71C16.54 10.65 14.69 6.97 11.69 4.31C8.7 1.64 4.56 0 0 0L0 20.27C0 24.34 1.85 28.02 4.84 30.68C7.83 33.34 11.97 34.99 16.54 34.99L16.54 17.49Z" fill="#FFFFFF" fill-opacity="1.000000" fill-rule="evenodd"/>
	<path id="Vector" d="M33.08 18.58L36.2 18.58C36.2 27.64 28.8 34.99 19.66 34.99L16.54 34.99C16.54 30.46 18.39 26.35 21.38 23.38C24.37 20.41 28.51 18.58 33.08 18.58Z" fill="#FFFFFF" fill-opacity="1.000000" fill-rule="nonzero"/>
</svg>
